<svg xmlns="http://www.w3.org/2000/svg" viewBox="0 0 55.54 63.47"><defs><style>.cls-1{fill:#2363b2;fill-rule:evenodd;}</style></defs><title>alertas</title><g id="Capa_2" data-name="Capa 2"><g id="Layer_4" data-name="Layer 4"><path class="cls-1" d="M37.49,55.53a9.92,9.92,0,0,1-19.43,0ZM34.9,11.4A17.75,17.75,0,0,1,45.62,27.77c0,4.34.61,9.91,2.53,13.77,1.2,2.4,2.94,4.08,5.41,4.08a2,2,0,0,1,2,2v2a2,2,0,0,1-2,2H2a2,2,0,0,1-2-2v-2a2,2,0,0,1,2-2c2.46,0,4.2-1.67,5.41-4.08,1.93-3.86,2.54-9.42,2.54-13.77A17.75,17.75,0,0,1,20.63,11.4a7.93,7.93,0,1,1,14.27,0ZM27.77,6a2,2,0,1,0,1.4.58A2,2,0,0,0,27.77,6Zm0,4Z"/></g></g></svg>