<svg xmlns="http://www.w3.org/2000/svg" viewBox="0 0 38.23 50.97"><defs><style>.cls-1{fill:#2363b2;}</style></defs><title>mapas</title><g id="Capa_2" data-name="Capa 2"><g id="Layer_4" data-name="Layer 4"><path class="cls-1" d="M19.11,51a1.56,1.56,0,0,1-1.29-.67L5.34,32.72l-.57-.8a27.45,27.45,0,0,1-3.26-5.37A18.79,18.79,0,0,1,.38,22.91,19.47,19.47,0,0,1,0,19.12,19.1,19.1,0,0,1,26.42,1.46,19.27,19.27,0,0,1,32.63,5.6a19.06,19.06,0,0,1,5.6,13.52,19.14,19.14,0,0,1-1.51,7.44,27.38,27.38,0,0,1-3.26,5.37l-.57.8L20.41,50.3a1.56,1.56,0,0,1-1.29.67Zm0-43A11.15,11.15,0,1,0,30.26,19.12,11.15,11.15,0,0,0,19.11,8Z"/></g></g></svg>