<svg xmlns="http://www.w3.org/2000/svg" viewBox="0 0 54.62 54.62"><defs><style>.cls-1{fill:#2363b2;fill-rule:evenodd;}</style></defs><title>monitoreo</title><g id="Capa_2" data-name="Capa 2"><g id="Layer_4" data-name="Layer 4"><path class="cls-1" d="M2.56,49.5h49.5a2.56,2.56,0,0,1,0,5.12H2.56a2.56,2.56,0,0,1,0-5.12ZM47.8,0H41a3.42,3.42,0,0,0-3.41,3.41V42.67A3.42,3.42,0,0,0,41,46.09H47.8a3.42,3.42,0,0,0,3.41-3.41V3.41A3.42,3.42,0,0,0,47.8,0ZM13.66,27.31H6.83a3.43,3.43,0,0,0-3.42,3.41V42.67a3.43,3.43,0,0,0,3.42,3.41h6.83a3.42,3.42,0,0,0,3.41-3.41V30.73a3.43,3.43,0,0,0-3.41-3.41ZM30.72,13.66H23.9a3.43,3.43,0,0,0-3.42,3.41v25.6c0,1.88.68,3.41,2.56,3.41h7.68a3.42,3.42,0,0,0,3.41-3.41V17.07A3.42,3.42,0,0,0,30.72,13.66Z"/></g></g></svg>